<?xml version="1.0" standalone="no"?>
<!DOCTYPE svg PUBLIC "-//W3C//DTD SVG 20010904//EN"
 "http://www.w3.org/TR/2001/REC-SVG-20010904/DTD/svg10.dtd">
<svg version="1.0" xmlns="http://www.w3.org/2000/svg"
 width="752.000000pt" height="622.000000pt" viewBox="0 0 752.000000 622.000000"
 preserveAspectRatio="xMidYMid meet">

<g transform="translate(0.000000,622.000000) scale(0.100000,-0.100000)"
fill="#000000" stroke="none">
<path d="M3878 4653 l-98 -78 0 -157 0 -158 -323 0 -323 0 -744 -356 c-410
-195 -855 -407 -990 -471 -135 -64 -249 -119 -253 -123 -10 -9 55 -136 68
-133 6 1 437 213 960 472 l949 470 1005 -506 1004 -505 386 6 c212 3 513 9
669 12 l283 6 -238 128 c-131 70 -600 323 -1043 561 l-805 433 -97 4 -98 4 0
152 0 153 -96 79 c-53 43 -101 80 -108 82 -6 1 -55 -33 -108 -75z m156 -80
c38 -32 45 -44 45 -75 l1 -38 -95 0 -95 0 0 36 c0 30 7 43 43 75 23 21 45 38
49 39 4 0 27 -17 52 -37z m46 -438 l0 -286 -92 50 -93 50 -3 236 -2 235 95 0
95 0 0 -285z"/>
<path d="M2308 3587 l-818 -401 0 -793 0 -793 -388 0 c-377 0 -389 -1 -410
-20 -31 -29 -29 -73 4 -99 l27 -21 1708 0 1708 0 -1 68 c0 78 15 118 61 154
l30 23 -1187 -2 -1187 -3 -3 -50 -3 -51 -132 3 -132 3 -3 793 -2 792 200 0
200 0 0 -415 0 -415 -65 0 -65 0 0 -40 0 -40 60 0 60 0 0 -90 0 -90 -65 0 -65
0 0 -160 0 -160 1260 0 1260 0 0 36 c0 66 22 117 75 170 62 64 135 93 252 101
l83 6 0 533 0 534 -170 85 c-93 47 -172 85 -175 85 -3 0 -5 -277 -5 -615 l0
-615 -40 0 -40 0 0 638 0 637 -608 306 -607 307 -817 -401z m512 -452 l0 -225
-270 0 -270 0 0 225 0 225 270 0 270 0 0 -225z m620 0 l0 -225 -270 0 -270 0
0 225 0 225 270 0 270 0 0 -225z m630 0 l0 -225 -275 0 -275 0 0 225 0 225
275 0 275 0 0 -225z m160 -585 l0 -200 -90 0 -90 0 0 120 0 120 -265 0 -265 0
0 -120 0 -120 -50 0 -50 0 0 120 0 120 -265 0 -265 0 0 -120 0 -120 -45 0 -45
0 0 120 0 120 -265 0 -265 0 0 -120 0 -120 -90 0 -90 0 0 200 0 200 1070 0
1070 0 0 -200z m-1520 -125 l0 -75 -175 0 -175 0 0 75 0 75 175 0 175 0 0 -75z
m620 0 l0 -75 -175 0 -175 0 0 75 0 75 175 0 175 0 0 -75z m630 0 l0 -75 -175
0 -175 0 0 75 0 75 175 0 175 0 0 -75z m-1690 -240 l0 -85 -90 0 -90 0 0 85 0
85 90 0 90 0 0 -85z m440 0 l0 -85 -175 0 -175 0 0 85 0 85 175 0 175 0 0 -85z
m180 0 l0 -85 -45 0 -45 0 0 85 0 85 45 0 45 0 0 -85z m440 0 l0 -85 -175 0
-175 0 0 85 0 85 175 0 175 0 0 -85z m190 0 l0 -85 -50 0 -50 0 0 85 0 85 50
0 50 0 0 -85z m440 0 l0 -85 -175 0 -175 0 0 85 0 85 175 0 175 0 0 -85z m270
0 l0 -85 -90 0 -90 0 0 85 0 85 90 0 90 0 0 -85z"/>
<path d="M4840 2595 l0 -525 48 -24 c26 -13 62 -40 81 -59 l34 -36 27 21 c39
28 115 29 163 0 l37 -21 14 27 c39 74 116 117 211 116 160 0 275 -111 275
-266 l0 -38 215 0 215 0 0 595 0 595 -515 0 -515 0 -140 70 c-77 39 -142 70
-145 70 -3 0 -5 -236 -5 -525z m420 -215 l0 -210 -30 0 -30 0 0 178 0 177
-100 -3 -100 -3 0 -175 0 -174 -25 0 -25 0 0 210 0 210 155 0 155 0 0 -210z
m400 0 l0 -210 -25 0 -25 0 0 174 0 175 -101 3 c-55 2 -103 1 -105 -1 -2 -2
-4 -82 -4 -178 l0 -173 -25 0 -25 0 0 210 0 210 155 0 155 0 0 -210z m400 0
l0 -210 -25 0 -25 0 0 175 0 175 -95 0 c-52 0 -98 0 -101 0 -3 0 -6 -78 -7
-173 l-2 -172 -27 -3 -28 -3 0 210 0 211 155 0 155 0 0 -210z"/>
<path d="M1270 2560 c-136 -13 -243 -63 -305 -144 -30 -39 -65 -125 -65 -159
0 -22 -3 -22 -69 -19 -83 5 -125 -7 -177 -52 -30 -25 -52 -34 -93 -39 -77 -9
-138 -49 -170 -112 -21 -39 -27 -67 -29 -136 l-4 -88 -54 -26 c-29 -14 -66
-42 -82 -61 -31 -37 -68 -133 -78 -202 -8 -51 14 -82 58 -82 37 0 64 28 71 77
13 79 74 139 170 167 68 20 101 50 93 85 -29 125 -30 137 -10 177 23 47 53 64
116 64 36 0 50 4 57 19 6 10 31 29 56 41 52 25 108 21 148 -10 40 -32 71 -34
101 -8 26 22 28 29 30 118 1 75 6 103 23 135 43 81 120 126 231 133 l72 5 0
63 c0 35 -1 63 -2 63 -2 -1 -41 -5 -88 -9z"/>
<path d="M6293 2463 c-21 -4 -23 -10 -23 -69 l0 -65 38 8 c55 12 119 6 152
-14 42 -24 78 -78 155 -232 96 -194 107 -209 171 -238 61 -28 130 -33 274 -19
82 8 86 7 108 -16 20 -22 61 -168 62 -221 0 -16 -30 -17 -532 -15 l-533 3 -3
68 -3 67 -190 0 -190 0 26 -22 c25 -23 58 -96 48 -110 -2 -5 -265 -8 -583 -8
-563 0 -580 -1 -590 -19 -15 -29 -12 -56 8 -74 17 -16 128 -17 1389 -17 1314
0 1371 1 1386 18 38 42 15 84 -50 91 l-48 6 -18 95 c-28 149 -37 176 -73 219
-46 54 -106 76 -181 67 -247 -29 -238 -34 -337 168 -105 211 -178 299 -274
326 -36 10 -145 12 -189 3z"/>
</g>
</svg>
